<?xml version="1.0" encoding="UTF-8" standalone="no"?>
<svg
   xmlns:dc="http://purl.org/dc/elements/1.1/"
   xmlns:cc="http://creativecommons.org/ns#"
   xmlns:rdf="http://www.w3.org/1999/02/22-rdf-syntax-ns#"
   xmlns:svg="http://www.w3.org/2000/svg"
   xmlns="http://www.w3.org/2000/svg"
   xmlns:sodipodi="http://sodipodi.sourceforge.net/DTD/sodipodi-0.dtd"
   xmlns:inkscape="http://www.inkscape.org/namespaces/inkscape"
   inkscape:version="1.0 (4035a4f, 2020-05-01)"
   height="91.480705"
   width="79.089828"
   sodipodi:docname="noun_Thought Bubble_1821793.svg"
   id="svg856"
   version="1.1"
   y="0px"
   x="0px"
   viewBox="0 0 79.089831 91.480707"
   data-name="Слой 1">
  <metadata
     id="metadata862">
    <rdf:RDF>
      <cc:Work
         rdf:about="">
        <dc:format>image/svg+xml</dc:format>
        <dc:type
           rdf:resource="http://purl.org/dc/dcmitype/StillImage" />
        <dc:title>Безымянный-51</dc:title>
      </cc:Work>
    </rdf:RDF>
  </metadata>
  <defs
     id="defs860" />
  <sodipodi:namedview
     inkscape:current-layer="svg856"
     inkscape:window-maximized="0"
     inkscape:window-y="23"
     inkscape:window-x="18"
     inkscape:cy="37.88253"
     inkscape:cx="38.748593"
     inkscape:zoom="4.9759136"
     fit-margin-bottom="0"
     fit-margin-right="0"
     fit-margin-left="0"
     fit-margin-top="0"
     showgrid="false"
     id="namedview858"
     inkscape:window-height="666"
     inkscape:window-width="1262"
     inkscape:pageshadow="2"
     inkscape:pageopacity="0"
     guidetolerance="10"
     gridtolerance="10"
     objecttolerance="10"
     borderopacity="1"
     bordercolor="#666666"
     pagecolor="#ffffff" />
  <title
     id="title840">Безымянный-51</title>
  <path
     id="path842"
     d="m 51.400562,68.04144 c 2.52106,2.3143 1.42227,4.244 -0.13486,6.41171 a 50.23791,50.23791 0 0 0 -3.68857,6.61571 45.0525,45.0525 0 0 1 -3.51067,5.733 c -0.84774,1.18808 -1.49512,2.51664 -2.36166,3.70968 -0.39075,0.53795 -0.65553,1.17478 -1.41754,0.90526 -0.7094,-0.251 -0.74627,-0.96012 -0.72127,-1.60947 0.10282,-2.67043 0.18513,-5.34236 0.3377,-8.01016 0.15254,-2.667 0.34215,-5.33333 0.595,-7.99237 a 1.446,1.446 0 0 0 -1.05157,-1.70562 c -2.2883,-1.06276 -4.526,-2.244 -6.73382,-3.46826 -3.4034,-1.88724 -7.15915,-2.883 -10.74208,-4.3113 a 3.0733,3.0733 0 0 1 -2.16836,-2.00607 27.99305,27.99305 0 0 0 -2.4605,-5.10536 3.676,3.676 0 0 0 -3.03211,-1.92008 20.41122,20.41122 0 0 1 -4.5652896,-0.71231 2.2161,2.2161 0 0 1 -1.60485,-1.7632 11.753,11.753 0 0 0 -1.00342,-2.98867 10.76275,10.76275 0 0 1 -0.68382,-6.39521 23.27144,23.27144 0 0 0 0.25188,-5.88861 5.12109,5.12109 0 0 0 -2.44415,-4.1936 c -1.01527,-0.62719 -1.97732,-1.34166 -3.001,-1.954 A 2.246,2.246 0 0 1 0.09331239,28.73404 c 0.32888,-1.51049 0.5638,-3.0432 0.94048001,-4.54091 a 8.52423,8.52423 0 0 0 0.27928,-4.16247 2.02312,2.02312 0 0 1 0.82946,-2.21713 27.91329,27.91329 0 0 0 7.9248396,-10.7586302 8.95857,8.95857 0 0 1 2.29987,-2.71353 c 1.16621,-1.11425 2.33946,-2.23333 3.60621,-3.22733 2.02125,-1.58607006 3.18823,-1.35661006 5.44328,-0.07831 3.56375,2.02 7.35,3.55147 11.606,3.0646 2.16369,-0.2475 4.32192,-0.55445 6.4731,-0.8948 a 15.19214,15.19214 0 0 1 3.578,-0.05361 5.78148,5.78148 0 0 1 3.892,1.88915 24.10588,24.10588 0 0 1 2.88215,3.89097 c 0.47316,0.77607 1.19038,1.4140002 1.60151,2.2148502 0.87171,1.69789 2.33451,1.85033 3.9323,1.67134 a 92.53924,92.53924 0 0 1 9.89818,-0.51264 3.41489,3.41489 0 0 1 3.63889,2.11758 c 0.963,2.02551 1.96541,4.039 2.8798,6.09095 a 10.12931,10.12931 0 0 0 2.66534,3.72046 23.0902,23.0902 0 0 1 3.65406,3.788 c 1.28464,1.75016 1.34485,2.88324 -0.11518,4.50972 a 45.941,45.941 0 0 0 -3.00957,4.31388 6.17629,6.17629 0 0 0 -0.83495,5.23074 71.36017,71.36017 0 0 0 2.51452,8.0415 2.889,2.889 0 0 1 -0.83025,3.40191 15.43269,15.43269 0 0 1 -4.37342,2.90783 17.63993,17.63993 0 0 0 -4.25518,2.69853 31.16569,31.16569 0 0 1 -8.23427,4.61706 36.758,36.758 0 0 0 -7.5792,4.29769 z M 41.043012,88.5657 a 50.87717,50.87717 0 0 0 6.21892,-9.62257 c 1.21049,-2.37854 2.48585,-4.725 3.7839,-7.0571 a 1.845,1.845 0 0 0 0.07222,-1.59158 8.77488,8.77488 0 0 0 -1.04438,-1.81883 c -0.63272,-1.10426 -0.53166,-1.28784 0.5976,-1.91642 5.08389,-2.82984 10.533,-4.98077 15.40414,-8.197 2.9778,-1.96606 6.15641,-3.62235 8.943,-5.89319 0.68653,-0.55945 0.8758,-0.94486 0.52184,-1.72124 a 53.12928,53.12928 0 0 1 -2.74281,-9.282 5.60267,5.60267 0 0 1 0.58943,-4.2551 c 1.11878,-2.04185 2.45862,-3.93162 3.766,-5.84371 a 1.15549,1.15549 0 0 0 -0.02667,-1.65907 c -1.3337,-1.53487 -2.58914,-3.1395 -3.95646,-4.64288 a 12.68913,12.68913 0 0 1 -2.29006,-3.50584 c -0.87087,-1.995 -1.89533,-3.92435 -2.731,-5.933 -0.86391,-2.07654 -2.55515,-2.38178 -4.46831,-2.34693 -0.27815,0.005 -0.55441,0.124 -0.83239,0.12769 -2.73677,0.03629 -5.42994,0.55533 -8.17792,0.63781 a 4.63338,4.63338 0 0 1 -4.687,-2.76456 32.62255,32.62255 0 0 0 -4.44188,-5.8324202 2.25646,2.25646 0 0 0 -2.01419,-0.91954 c -3.14706,0.42835 -6.32809,0.11991 -9.476,0.46361 a 19.92568,19.92568 0 0 1 -13.67046,-3.1294 2.10063,2.10063 0 0 0 -2.36588,-0.31973 c -2.97488,1.77913 -5.751,3.81871 -7.34956,7.00823 C 8.8591424,12.1543 6.9225124,15.63421 3.6281524,18.12663 a 1.48059,1.48059 0 0 0 -0.7262,1.20329 c -0.02422,3.10311 -0.95928,6.09719 -1.09137,9.19231 a 2.321,2.321 0 0 0 1.23587,2.44658 c 0.93046,0.49233 1.83925,1.02868 2.78733,1.48359 a 2.43,2.43 0 0 1 1.4955,1.867 36.60019,36.60019 0 0 1 0.53217,11.53231 2.66535,2.66535 0 0 0 -0.02422,1.456 48.45884,48.45884 0 0 1 1.48788,4.82548 1.69443,1.69443 0 0 0 1.4923396,1.2035 16.69881,16.69881 0 0 0 3.776,0.25514 3.79941,3.79941 0 0 1 2.63408,1.09321 c 1.40716,1.206 1.96788,2.8753 2.604,4.51128 0.35472,0.91222 0.57646,1.92683 1.49477,2.46875 2.41982,1.428 4.80132,2.97722 7.558,3.66906 a 14.15473,14.15473 0 0 1 3.1437,1.16158 c 2.98514,1.56592 5.8955,3.27442 8.87865,4.84436 a 1.7212,1.7212 0 0 1 1.06866,2.01045 q -0.43023,3.13013 -0.75084,6.27515 a 47.26926,47.26926 0 0 0 -0.18146,8.94003 z" />
  <path
     id="path844"
     d="m 34.165172,23.98233 a 23.46927,23.46927 0 0 1 5.28237,0.44041 c 3.29635,0.93955 4.26044,3.83512 3.32122,6.79756 a 9.54706,9.54706 0 0 1 -1.7564,2.82558 c -0.892,1.14619 -1.78483,2.29823 -2.76329,3.36916 a 12.67459,12.67459 0 0 0 -2.98476,5.25753 2.70949,2.70949 0 0 1 -2.87227,2.298 c -0.20579,4.9e-4 -0.41121,0.04544 -0.61726,0.06473 -1.25507,0.11732 -1.63127,-0.15477 -1.81071,-1.39275 a 5.76637,5.76637 0 0 1 0.25343,-2.461 16.19746,16.19746 0 0 1 4.43674,-7.38164 19.97169,19.97169 0 0 0 2.91213,-3.23447 1.49818,1.49818 0 0 0 -1.39977,-2.52383 13.98544,13.98544 0 0 0 -5.88881,1.28957 c -1.43676,0.71258 -3.033,1.08119 -4.494,1.79244 -0.9187,0.44722 -1.1922,0.25387 -1.53135,-0.73977 a 10.02017,10.02017 0 0 1 -0.60556,-1.87369 1.41089,1.41089 0 0 1 0.6374,-1.47238 8.90552,8.90552 0 0 1 2.98587,-1.50288 c 1.54519,-0.47316 3.11492,-0.86562 4.66471,-1.32449 a 14.87039,14.87039 0 0 1 2.23031,-0.22808 z m -0.66685,1.8739 a 1.58627,1.58627 0 0 0 -0.81442,1.02774 c 0.32261,-0.30671 0.7114,-0.56829 0.79035,-1.05053 0.37291,-0.05409 0.48562,-0.29434 0.47225,-0.62309 -0.22715,0.1626 -0.49757,0.29969 -0.44818,0.64588 z m 5.228,5.985 a 3.88131,3.88131 0 0 0 -1.979,1.69231 c 0.72605,-0.5793 1.53727,-0.91874 1.96073,-1.71224 a 0.79809,0.79809 0 0 0 0.70654,-0.58094 c -0.23497,0.19286 -0.57869,0.2716 -0.68827,0.60083 z m -3.47673,3.0154 c -0.69732,0.71634 -1.60983,1.23871 -2.00633,2.22614 a 3.26221,3.26221 0 0 0 -1.26217,2.73415 32.4465,32.4465 0 0 0 4.24476,-3.57351 27.93928,27.93928 0 0 0 -3.60435,2.64545 0.85424,0.85424 0 0 1 0.48842,-0.9511 c 0.37572,-0.26466 0.25439,-0.553 0.12306,-0.86462 0.65788,-0.49919 1.30428,-1.01455 1.97807,-1.49122 0.3799,-0.26874 0.11534,-0.49534 0.01832,-0.74537 a 2.85945,2.85945 0 0 0 0.37691,-0.29136 c 0.08393,-0.08883 0.29279,-0.17693 0.08251,-0.373 a 1.34559,1.34559 0 0 0 -0.26017,0.24811 2.89706,2.89706 0 0 0 -0.17903,0.43629 z m -1.39134,5.0393 c 1.70725,-0.84036 5.85309,-5.75321 6.14946,-7.19972 -0.30125,0.21444 -0.68812,0.348 -0.81207,0.60728 a 2.971,2.971 0 0 1 -1.07541,1.424 c -0.06148,0.03685 -0.13783,0.1471 -0.12278,0.19863 0.21263,0.72831 -0.45449,0.891 -0.80527,1.23926 -0.46811,0.46475 -1.23027,0.8083 -1.402,1.35082 a 3.60632,3.60632 0 0 1 -0.9993,1.32169 c -0.26593,0.30825 -0.66325,0.49224 -0.93263,1.05804 z m 4.07134,-8.11474 c 0.64666,-0.508 1.29832,-1.00986 1.938,-1.5265 0.35324,-0.28523 0.67611,-0.60831 1.03185,-0.89013 0.28654,-0.227 0.41672,-0.45387 0.19983,-0.80428 a 8.30214,8.30214 0 0 0 -3.16968,3.22091 z m 2.7674,-0.52246 a 18.02625,18.02625 0 0 0 -3.76391,2.92269 17.36449,17.36449 0 0 0 3.76391,-2.92269 z m -1.8508,-2.48623 a 5.33771,5.33771 0 0 0 1.61574,-1.76678 3.5236,3.5236 0 0 0 -1.61574,1.76678 z m -0.54734,-3.15783 c -0.46764,0.53313 -1.16547,0.89582 -1.35553,1.65281 a 3.153,3.153 0 0 0 1.35553,-1.65281 z m -8.54946,1.99948 q 0.59667,-0.87951 1.19332,-1.759 l -0.22049,-0.14554 a 4.16688,4.16688 0 0 0 -0.97283,1.90454 z m 7.91159,0.05284 c 1.12093,-0.8358 1.24211,-0.99962 1.41473,-1.92442 -0.43179,0.7039 -1.04912,1.01933 -1.41473,1.92447 z m -1.66761,-2.65566 c 0.42011,0.28151 0.82756,0.82153 1.04775,-0.106 a 1.17924,1.17924 0 0 0 -1.04775,0.106 z m 5.10517,2.56451 a 1.79764,1.79764 0 0 0 -1.037,1.05572 2.267,2.267 0 0 0 1.037,-1.05572 z m -0.90172,3.13708 c 0.25938,-0.23632 0.77,-0.18507 0.80081,-0.68276 a 1.04526,1.04526 0 0 0 -0.80081,0.68276 z m -4.93014,-5.85823 c -0.44246,0.2519 -0.67986,0.46826 -0.72885,0.929 a 1.30942,1.30942 0 0 0 0.72885,-0.929 z m 3.31119,3.067 c 0.06941,-0.03108 0.15256,-0.04382 0.1952,-0.09224 0.10982,-0.12473 0.35557,-0.19335 0.21109,-0.44125 -0.19987,0.12563 -0.44287,0.21821 -0.40629,0.53351 z m -12.43832,0.56085 c -0.18783,0.14484 -0.37512,0.27356 -0.29314,0.57595 a 0.5992,0.5992 0 0 0 0.29314,-0.57595 z" />
  <path
     id="path846"
     d="m 34.541582,48.04944 a 2.31405,2.31405 0 0 1 -2.55582,2.4257 0.69177,0.69177 0 0 1 -0.59807,-0.36882 4.28021,4.28021 0 0 1 -0.7088,-2.57079 1.44808,1.44808 0 0 1 0.86035,-1.12928 2.13388,2.13388 0 0 1 2.11962,-0.19326 1.66657,1.66657 0 0 1 0.88272,1.83645 z" />
  <path
     id="path848"
     d="m 45.927712,40.13504 c -0.361,-2.59417 0.05521,-5.1779 0.08325,-7.76692 a 33.23576,33.23576 0 0 0 -0.3639,-5.66652 4.51816,4.51816 0 0 1 -0.05934,-1.69041 c 0.26914,-1.24221 0.6756,-1.85616 1.99522,-1.91286 0.49468,-0.02126 0.985,-0.14351 1.47863,-0.20857 a 4.26438,4.26438 0 0 1 0.80212,-0.06353 c 2.25094,0.13437 2.57208,0.95016 2.45745,2.87556 -0.07919,1.3299 -0.31935,2.6485 -0.47047,3.97432 -0.25666,2.25173 -0.53606,4.50166 -0.73158,6.75954 a 16.46,16.46 0 0 0 0.05418,2.9024 10.06791,10.06791 0 0 1 -0.59455,4.04624 2.57228,2.57228 0 0 1 -1.5268,1.3027 1.56661,1.56661 0 0 1 -1.54841,-0.06164 c -0.25587,-0.17335 -0.54779,-0.2877 -0.80156,-0.46394 -0.41444,-0.28782 -0.809,-0.55067 -0.67568,-1.24311 a 6.5134,6.5134 0 0 0 -0.09426,-1.44582 c -0.02023,-0.44487 -0.0043,-0.89156 -0.0043,-1.33744 z m 3.02924,-7.81908 a 13.21607,13.21607 0 0 0 -2.156,2.52848 8.4057,8.4057 0 0 0 2.177,-2.50779 c 0.40609,-0.16386 0.55208,-0.55307 0.71648,-0.92764 a 1.34105,1.34105 0 0 0 -0.73748,0.90694 z m 1.82455,-4.57323 -0.23126,-0.18218 q -1.85141,2.13313 -3.70065,4.26838 a 0.42148,0.42148 0 0 0 0.01664,0.67238 41.67375,41.67375 0 0 0 3.91527,-4.75859 z m -4.07734,12.96931 a 21.18186,21.18186 0 0 0 3.23977,-4.29852 c -1.93465,1.66352 -3.05433,3.10052 -3.23977,4.29852 z m 0.0554,-1.79538 c 0.95512,-1.14519 2.16,-2.08343 2.70076,-3.572 -0.82933,1.24938 -2.31008,1.95904 -2.70076,3.57196 z m -0.13429,-7.90169 0.21955,0.19774 3.454,-4.25568 -0.211,-0.1899 c -1.16337,1.40762 -2.41147,2.73905 -3.46255,4.2478 z m 0.4807,11.89122 a 7.29341,7.29341 0 0 0 2.45705,-3.281 29.893,29.893 0 0 0 -2.45705,3.28096 z m -0.35746,-8.90015 c 0.97625,-1.19648 1.88887,-2.30955 2.79121,-3.43188 0.06775,-0.0843 0.24123,-0.19038 0.09456,-0.3649 -2.07776,1.97631 -2.81212,2.91298 -2.88577,3.79678 z m 2.09411,5.38291 c -1.27841,0.94112 -1.88842,1.78168 -1.87572,2.57361 a 18.73717,18.73717 0 0 0 1.87572,-2.57361 z m 0.10515,-4.48609 c -1.38041,0.91809 -2.01913,1.68649 -2.09937,2.57351 a 18.90763,18.90763 0 0 0 2.09937,-2.57351 z m -2.06826,0.73731 0.20125,0.22471 a 19.65,19.65 0 0 0 1.96055,-2.20708 z m -0.2087,-7.50971 a 1.68923,1.68923 0 0 0 0.738,-1.13756 1.70982,1.70982 0 0 0 -0.738,1.13756 z m 1.51847,15.86721 c 0.57424,0.02229 0.5094,-0.38925 0.60847,-0.67152 -0.2589,0.13649 -0.53752,0.2421 -0.60847,0.67152 z m 1.87621,-18.081 c -0.40664,0.31509 -0.597,0.47194 -0.67871,0.75677 0.2919,-0.06677 0.40438,-0.30475 0.67867,-0.75676 z m 0.38473,-1.49534 a 0.33653,0.33653 0 0 0 0.29789,-0.26956 0.19627,0.19627 0 0 0 -0.15362,-0.2509 c -0.16845,-0.03308 -0.27627,0.04515 -0.27651,0.23712 a 0.27575,0.27575 0 0 0 0.13224,0.28335 z m -2.657,4.3779 c 0.14643,-0.28345 0.3747,-0.344 0.31792,-0.66216 -0.21795,0.10597 -0.34939,0.2413 -0.3179,0.66217 z m 1.81945,-4.34967 a 1.81652,1.81652 0 0 0 0.19373,-0.34877 0.217,0.217 0 0 0 -0.09985,-0.18372 c -0.13738,-0.04271 -0.21674,0.04771 -0.2113,0.19191 a 1.69292,1.69292 0 0 0 0.11744,0.34059 z m 0.22024,13.77835 c -0.01707,-0.07215 -0.03033,-0.20525 -0.05185,-0.20676 -0.167,-0.01176 -0.25774,0.11243 -0.30284,0.26068 -0.01726,0.05678 0.02485,0.1927 0.04675,0.19441 a 0.2743,0.2743 0 0 0 0.30796,-0.24832 z" />
  <path
     id="path850"
     d="m 50.956982,48.13675 c -0.13071,1.30771 -0.34331,2.59658 -1.7421,3.2355 a 2.22621,2.22621 0 0 1 -3.30113,-1.78421 10.27441,10.27441 0 0 1 0.013,-2.66876 1.72757,1.72757 0 0 1 1.08688,-1.31728 c 2.19997,-0.96644 3.8037,-0.46196 3.94335,2.53475 z" />
</svg>
