<?xml version="1.0" encoding="UTF-8" standalone="no"?>
<svg
   xmlns:dc="http://purl.org/dc/elements/1.1/"
   xmlns:cc="http://creativecommons.org/ns#"
   xmlns:rdf="http://www.w3.org/1999/02/22-rdf-syntax-ns#"
   xmlns:svg="http://www.w3.org/2000/svg"
   xmlns="http://www.w3.org/2000/svg"
   xmlns:sodipodi="http://sodipodi.sourceforge.net/DTD/sodipodi-0.dtd"
   xmlns:inkscape="http://www.inkscape.org/namespaces/inkscape"
   sodipodi:docname="sticker-template.svg"
   inkscape:version="1.0 (4035a4f, 2020-05-01)"
   id="svg8"
   version="1.1"
   viewBox="0 0 101.6 101.6"
   height="4in"
   width="4in">
  <defs
     id="defs2" />
  <sodipodi:namedview
     inkscape:window-maximized="1"
     inkscape:window-y="23"
     inkscape:window-x="0"
     inkscape:window-height="755"
     inkscape:window-width="1280"
     units="in"
     showgrid="false"
     inkscape:document-rotation="0"
     inkscape:current-layer="layer1"
     inkscape:document-units="mm"
     inkscape:cy="187.89559"
     inkscape:cx="231.53941"
     inkscape:zoom="1.4"
     inkscape:pageshadow="2"
     inkscape:pageopacity="0.0"
     borderopacity="1.0"
     bordercolor="#666666"
     pagecolor="#ffffff"
     id="base" />
  <metadata
     id="metadata5">
    <rdf:RDF>
      <cc:Work
         rdf:about="">
        <dc:format>image/svg+xml</dc:format>
        <dc:type
           rdf:resource="http://purl.org/dc/dcmitype/StillImage" />
        <dc:title></dc:title>
      </cc:Work>
    </rdf:RDF>
  </metadata>
  <g
     id="layer1"
     inkscape:groupmode="layer"
     inkscape:label="Layer 1">
    <text
       id="text837"
       y="47.306705"
       x="25.925144"
       style="font-style:normal;font-weight:normal;font-size:10.5833px;line-height:1.25;font-family:sans-serif;fill:#000000;fill-opacity:1;stroke:none;stroke-width:0.264583"
       xml:space="preserve"><tspan
         id="tspan839"
         style="stroke-width:0.264583"
         y="47.306705"
         x="25.925144"
         sodipodi:role="line" /></text>
    <text
       transform="translate(-0.26726953,-14.699824)"
       id="text861"
       y="18.441597"
       x="104.76965"
       style="font-style:normal;font-weight:normal;font-size:4.93889px;line-height:1.25;font-family:sans-serif;white-space:pre;inline-size:113.007;fill:#000000;fill-opacity:1;stroke:none;stroke-width:0.264583"
       xml:space="preserve"><tspan
         x="104.76965"
         y="18.441597"><tspan
           style="font-style:normal;font-variant:normal;font-weight:normal;font-stretch:normal;font-size:4.93889px;font-family:monospace;-inkscape-font-specification:monospace;stroke-width:0.264583">VINYL STICKER DESIGN TIPS:
</tspan></tspan><tspan
         x="104.76965"
         y="24.771006"><tspan
           style="font-style:normal;font-variant:normal;font-weight:normal;font-stretch:normal;font-size:4.93889px;font-family:monospace;-inkscape-font-specification:monospace;stroke-width:0.264583">- Use solid fill colors, no strokes
</tspan></tspan><tspan
         x="104.76965"
         y="31.100414"><tspan
           style="font-style:normal;font-variant:normal;font-weight:normal;font-stretch:normal;font-size:4.93889px;font-family:monospace;-inkscape-font-specification:monospace;stroke-width:0.264583">- Avoid overly complex features
</tspan></tspan><tspan
         x="104.76965"
         y="37.429823"><tspan
           style="font-style:normal;font-variant:normal;font-weight:normal;font-stretch:normal;font-size:4.93889px;font-family:monospace;-inkscape-font-specification:monospace;stroke-width:0.264583">- Simple silhouette and outlines work best
</tspan></tspan><tspan
         x="104.76965"
         y="43.75923"><tspan
           style="font-style:normal;font-variant:normal;font-weight:normal;font-stretch:normal;font-size:4.93889px;font-family:monospace;-inkscape-font-specification:monospace;stroke-width:0.264583">- When done, select everything and
</tspan></tspan><tspan
         x="104.76965"
         y="50.088766"><tspan
           style="font-style:normal;font-variant:normal;font-weight:normal;font-stretch:normal;font-size:4.93889px;font-family:monospace;-inkscape-font-specification:monospace;stroke-width:0.264583">do </tspan><tspan
           style="font-weight:bold">Path &gt; Object to Path</tspan><tspan
           style="font-style:normal;font-variant:normal;font-weight:normal;font-stretch:normal;font-size:4.93889px;font-family:monospace;-inkscape-font-specification:monospace;stroke-width:0.264583"> 
</tspan></tspan><tspan
         x="104.76965"
         y="56.418173"><tspan
           style="font-style:normal;font-variant:normal;font-weight:normal;font-stretch:normal;font-size:4.93889px;font-family:monospace;-inkscape-font-specification:monospace;stroke-width:0.264583">- To preserve cut position, select shapes and </tspan></tspan><tspan
         x="104.76965"
         y="62.747709"><tspan
           style="font-style:normal;font-variant:normal;font-weight:normal;font-stretch:normal;font-size:4.93889px;font-family:monospace;-inkscape-font-specification:monospace;stroke-width:0.264583">do </tspan><tspan
           style="font-weight:bold">Path &gt; Combine</tspan><tspan
           style="font-style:normal;font-variant:normal;font-weight:normal;font-stretch:normal;font-size:4.93889px;font-family:monospace;-inkscape-font-specification:monospace;stroke-width:0.264583">
</tspan></tspan></text>
    <g
       transform="translate(-0.94494048,-1.7008928)"
       style="font-style:normal;font-variant:normal;font-weight:normal;font-stretch:normal;font-size:14.9193px;line-height:1.25;font-family:'Hiragino Kaku Gothic Std';-inkscape-font-specification:'Hiragino Kaku Gothic Std';fill:#ed2124;fill-opacity:1;stroke:none;stroke-width:0.18649"
       id="text879"
       aria-label="MakerLab">
      <path
         d="m 87.40319,92.418202 v -0.477418 c 0,-0.0746 -0.01492,-0.268547 -0.01492,-0.313305 0.969754,0.805642 1.7008,1.05927 2.939102,1.05927 1.312898,0 2.327411,-0.387901 3.103214,-1.163705 0.86532,-0.910077 1.327818,-2.193137 1.327818,-3.789502 0,-2.954022 -1.581446,-4.68466 -4.296758,-4.68466 -1.238302,0 -2.193137,0.343143 -3.073376,1.118947 0.01492,-0.20887 0.01492,-0.343144 0.01492,-0.566933 v -1.253222 c 0,-1.089108 0.02984,-1.626203 0.104435,-2.34233 h -3.028618 c 0.08952,0.716127 0.119355,1.253222 0.119355,2.34233 v 7.728198 c 0,0.999593 -0.02984,1.626204 -0.119355,2.34233 z m 4.460871,-4.654822 c 0,1.581446 -0.86532,2.640717 -2.163299,2.640717 -1.283059,0 -2.267733,-1.118948 -2.267733,-2.595959 0,-1.447172 0.969754,-2.491523 2.327411,-2.491523 1.312898,0 2.103621,0.924997 2.103621,2.446765 z M 80.000656,86.525079 c -1.07419,0.02984 -1.521769,0.04476 -2.103622,0.104435 -1.342737,0.119354 -2.34233,0.432659 -3.103214,0.969754 -0.716126,0.492337 -1.089109,1.238302 -1.089109,2.178218 0,0.820561 0.283467,1.536688 0.820562,2.029025 0.596772,0.552014 1.447172,0.820561 2.581039,0.820561 1.223382,0 2.058863,-0.253628 2.894344,-0.895158 v 0.686288 H 82.895 C 82.8204,91.746834 82.790565,91.209739 82.790565,90.299661 V 86.27145 c 0,-1.342737 -0.417741,-2.163298 -1.372576,-2.685474 -0.581852,-0.313305 -1.656042,-0.522175 -2.76007,-0.522175 -1.447172,0 -2.551201,0.283467 -3.356843,0.8504 -0.62661,0.447579 -0.954835,0.924997 -1.253221,1.805235 l 2.849586,0.462499 c 0.22379,-0.731046 0.731046,-1.044351 1.685881,-1.044351 0.984674,0 1.417334,0.328224 1.417334,1.044351 z m 0,2.32741 c 0,0.447579 -0.193951,0.8504 -0.537095,1.148786 -0.402821,0.343144 -1.07419,0.566934 -1.685881,0.566934 -0.775804,0 -1.223383,-0.313305 -1.223383,-0.8504 0,-0.43266 0.328225,-0.805642 0.86532,-0.984674 0.611691,-0.193951 1.253221,-0.268547 2.581039,-0.298386 z m -9.332725,3.565713 c 1.193544,0 1.92459,0.02984 2.476604,0.104435 v -2.864505 c -0.701207,0.08952 -1.208463,0.104435 -2.476604,0.104435 h -3.61047 v -7.399973 c 0,-1.163706 0.01492,-1.581446 0.119354,-2.35725 h -3.252407 c 0.08952,0.716127 0.119354,1.357657 0.119354,2.402008 v 7.87739 c 0,0.999593 -0.02984,1.656042 -0.119354,2.178218 0.566933,-0.02984 1.178624,-0.04476 2.208056,-0.04476 z m -7.781814,-9.100773 c -0.701207,-0.149193 -0.999593,-0.179032 -1.47701,-0.179032 -1.357657,0 -2.252815,0.402821 -2.98386,1.357657 v -1.178625 h -2.968941 c 0.08952,0.64153 0.119354,1.163705 0.119354,2.252814 v 4.595145 c 0,0.969754 -0.02984,1.506849 -0.119354,2.252814 h 3.088295 c -0.08952,-0.716126 -0.119354,-1.28306 -0.119354,-2.237895 v -2.327411 c 0.05968,-0.656449 0.164112,-0.969754 0.447579,-1.327817 0.432659,-0.537095 1.014512,-0.805643 1.775396,-0.805643 0.462499,0 0.835481,0.0746 1.521769,0.283467 z m -8.615896,5.385867 c -0.01492,-0.149193 -0.01492,-0.238708 -0.01492,-0.298386 -0.04476,-0.8504 -0.104435,-1.47701 -0.223789,-1.954428 -0.522176,-2.222976 -2.14838,-3.491116 -4.47579,-3.491116 -2.849587,0 -4.744338,1.954428 -4.744338,4.90845 0,1.47701 0.477418,2.745151 1.357657,3.640309 0.8504,0.8504 1.999186,1.26814 3.461277,1.26814 1.477011,0 2.670555,-0.432659 3.520955,-1.26814 0.41774,-0.417741 0.64153,-0.760885 0.984674,-1.536688 L 51.53999,89.240391 c -0.119355,0.387902 -0.22379,0.552014 -0.447579,0.760884 -0.387902,0.358064 -0.910078,0.552015 -1.50685,0.552015 -1.178624,0 -1.879832,-0.64153 -2.029025,-1.849994 z m -6.668927,-2.058863 c 0.253628,-0.984674 0.895158,-1.462092 1.954429,-1.462092 1.029431,0 1.670961,0.507257 1.879831,1.462092 z m -13.32923,-6.639089 c 0.0746,0.552014 0.119354,1.238302 0.119354,2.252815 v 7.907229 c 0,0.984674 -0.02984,1.581446 -0.119354,2.252814 h 3.043537 C 37.211166,91.82143 37.196247,91.463367 37.196247,90.239984 v -0.596772 l 1.118947,-1.074189 1.133867,1.849993 c 0.43266,0.716126 0.760884,1.372575 0.984674,1.999186 h 3.804421 c -0.41774,-0.507256 -0.477417,-0.596772 -1.387495,-1.90967 l -2.491523,-3.64031 2.163299,-2.088702 c 0.805642,-0.790723 0.984674,-0.954835 1.566526,-1.462091 h -3.968534 c -0.283466,0.43266 -0.611691,0.820561 -1.297979,1.506849 l -1.641123,1.626204 v -4.192323 c 0,-0.999593 0.02984,-1.641123 0.119355,-2.252815 z m -4.478354,6.519735 c -1.074189,0.02984 -1.521768,0.04476 -2.103621,0.104435 -1.342737,0.119354 -2.34233,0.432659 -3.103214,0.969754 -0.716127,0.492337 -1.089109,1.238302 -1.089109,2.178218 0,0.820561 0.283466,1.536688 0.820561,2.029025 0.596772,0.552014 1.447172,0.820561 2.581039,0.820561 1.223383,0 2.058864,-0.253628 2.894344,-0.895158 v 0.686288 h 2.894345 c -0.0746,-0.671368 -0.104436,-1.208463 -0.104436,-2.118541 V 86.27145 c 0,-1.342737 -0.41774,-2.163298 -1.372575,-2.685474 -0.581853,-0.313305 -1.656042,-0.522175 -2.760071,-0.522175 -1.447172,0 -2.5512,0.283467 -3.356842,0.8504 -0.626611,0.447579 -0.954835,0.924997 -1.253221,1.805235 l 2.849586,0.462499 c 0.223789,-0.731046 0.731046,-1.044351 1.685881,-1.044351 0.984674,0 1.417333,0.328224 1.417333,1.044351 z m 0,2.32741 c 0,0.447579 -0.193951,0.8504 -0.537094,1.148786 -0.402822,0.343144 -1.07419,0.566934 -1.685881,0.566934 -0.775804,0 -1.223383,-0.313305 -1.223383,-0.8504 0,-0.43266 0.328225,-0.805642 0.865319,-0.984674 0.611692,-0.193951 1.253222,-0.268547 2.581039,-0.298386 z m -13.149031,3.565713 c 0.0746,-0.477418 0.268547,-1.133867 0.641529,-2.193137 l 1.447173,-4.087888 c 0.193951,-0.537095 0.343144,-1.07419 0.671368,-2.237895 -0.01492,0.223789 -0.01492,0.223789 -0.05968,1.014512 -0.02984,0.462498 -0.0746,1.581446 -0.0746,1.939509 v 3.252408 c 0,1.05927 -0.02984,1.626203 -0.119354,2.312491 h 2.939102 c -0.08952,-0.596772 -0.119354,-1.178625 -0.119354,-2.312491 v -7.772956 c 0,-0.999593 0.02984,-1.611284 0.119354,-2.327411 h -3.953614 c -0.08952,0.626611 -0.208871,1.104029 -0.552015,2.103622 l -2.222975,6.430218 -2.237895,-6.430218 C 12.78058,81.124292 12.661225,80.646874 12.55679,80.005344 H 8.6180951 c 0.074597,0.64153 0.1193545,1.432253 0.1193545,2.327411 v 7.772956 c 0,1.014512 -0.029839,1.641123 -0.1193545,2.312491 h 2.9391019 c -0.08952,-0.626611 -0.119354,-1.28306 -0.119354,-2.312491 v -3.237489 c 0,-0.790722 -0.05968,-2.014105 -0.149193,-2.954021 0.0746,0.20887 0.0746,0.20887 0.238709,0.745965 0.04476,0.119354 0.492337,1.506849 0.507256,1.581446 l 1.372575,3.968534 c 0.402822,1.133866 0.566934,1.685881 0.64153,2.208056 z M 48.214192,57.524021 c -1.241239,-4.708728 -2.357369,-8.676206 -2.480287,-8.816624 -0.122919,-0.140414 -4.034119,0.772611 -8.691554,2.028945 -4.657436,1.256334 -8.625382,2.285056 -8.817658,2.286044 -0.192276,0.0011 2.587369,-2.938386 6.176989,-6.531942 l 6.526581,-6.533743 -6.670598,-6.677535 -6.670598,-6.677536 3.672164,0.99947 c 2.019689,0.549709 6.04984,1.645782 8.955889,2.435716 2.90605,0.789935 5.3869,1.318757 5.513,1.175161 0.126101,-0.143597 1.244833,-4.11368 2.486072,-8.822408 1.24124,-4.708728 2.336263,-8.561593 2.433386,-8.561923 0.09712,-3.3e-4 1.193543,3.852265 2.43649,8.561323 1.242948,4.709058 2.359958,8.677689 2.482244,8.819181 0.12229,0.141491 4.248307,-0.831178 9.168931,-2.161488 l 8.946584,-2.418746 -6.657467,6.664392 -6.657467,6.664393 6.526581,6.533743 c 3.589619,3.593556 6.369265,6.530639 6.176987,6.52685 -0.192274,-0.0038 -4.161353,-1.031377 -8.820173,-2.283526 -4.658818,-1.252153 -8.568619,-2.162886 -8.688447,-2.023853 -0.119828,0.13903 -1.234825,4.10565 -2.477773,8.814706 -1.242947,4.70906 -2.339368,8.561654 -2.43649,8.561322 -0.09712,-3.28e-4 -1.192146,-3.853195 -2.433386,-8.561922 z"
         style="font-style:normal;font-variant:normal;font-weight:normal;font-stretch:normal;font-size:14.9193px;font-family:'Hiragino Kaku Gothic Std';-inkscape-font-specification:'Hiragino Kaku Gothic Std';fill:#ed2124;fill-opacity:1;stroke-width:0.18649"
         id="path897" />
    </g>
  </g>
</svg>
